<svg width="200" height="84" viewBox="0 0 200 84" fill="none" xmlns="http://www.w3.org/2000/svg">
<g clip-path="url(#clip0_55_25)">
<path d="M12.2133 82.1774H0V50.9533H12.2133V82.1774ZM0 47.6927V31.2241C2.13687 24.8503 6.20798 20.0792 12.2133 16.9107V35.3689H28.7372V47.6927H0ZM0 0.939453H34.8162V13.208H12.2133C7.27641 15.3817 3.2053 18.716 0 23.2108V23.5424V0.939453Z" fill="#ffffff"/>
<path d="M53.6613 82.1773H41.4479V27.7424C43.5848 21.3318 47.6559 16.5606 53.6613 13.429V82.1773ZM41.4479 0.994629H53.6613V9.72632C48.7243 11.9001 44.6532 15.2159 41.4479 19.6738V20.0607V0.994629Z" fill="#ffffff"/>
<path d="M75.2142 0.939453L91.4618 55.3744V55.4296C96.325 50.198 100.396 44.2295 103.675 37.5241V82.1774H90.5223L73.7221 30.1741C68.7852 35.1847 64.6956 40.9321 61.4535 47.4164V0.939453H75.2142ZM91.4618 0.939453H103.675V28.9583C101.317 36.8794 97.2461 44.2111 91.4618 50.9533V0.939453ZM73.7221 82.1774H61.4535V56.5349C63.7377 49.019 67.8273 42.0005 73.7221 35.4794V82.1774Z" fill="#ffffff"/>
<path d="M149.931 62.0061C150.005 64.843 149.673 67.4588 148.936 69.8536C144.552 63.7745 139.21 57.9534 132.91 52.3902C131.436 51.027 127.825 47.619 122.078 42.1664C118.357 38.5558 115.631 35.2768 113.899 32.3294C116.183 27.7609 119.333 23.2845 123.349 18.9003C123.349 19.2318 123.349 19.5818 123.349 19.9503C123.349 23.7082 124.952 27.4846 128.157 31.2794C129.373 32.7531 131.178 34.4847 133.573 36.4742C136.447 38.8689 138.344 40.5269 139.265 41.4479C142.286 44.5059 144.607 47.4901 146.228 50.4007C147.002 51.7638 147.628 53.0349 148.107 54.2139C149.286 57.1244 149.894 59.7219 149.931 62.0061ZM112.296 29.0135C111.265 26.2504 110.749 23.3214 110.749 20.2266C110.749 12.8212 113.236 7.22116 118.209 3.42636C121.267 1.14213 125.062 0 129.594 0C133.978 0 137.718 0.976327 140.812 2.92899C143.244 4.43953 145.197 6.55798 146.67 9.28434C148.144 11.9738 149.047 15.087 149.378 18.6239L137.607 20.7792C137.276 17.4634 136.318 14.8844 134.733 13.0423C133.628 11.7159 132.007 11.0528 129.87 11.0528C128.212 11.0528 126.849 11.587 125.781 12.6554L125.725 12.7107C120.42 17.6844 115.944 23.1187 112.296 29.0135ZM147.389 73.6115C146.836 74.6063 146.228 75.5642 145.565 76.4852C143.576 79.2116 140.757 81.1274 137.11 82.2327C135.194 82.859 132.928 83.1721 130.312 83.1721C125.523 83.1721 121.562 81.9748 118.431 79.58C115.778 77.6273 113.696 74.9931 112.186 71.6773C110.638 68.2877 109.736 64.4377 109.478 60.1271L121.138 59.2982C121.654 64.014 122.888 67.4404 124.841 69.5772C126.352 71.1983 128.046 71.9536 129.925 71.8431C132.615 71.7694 134.752 70.4615 136.336 67.9193C137.147 66.6298 137.552 64.8245 137.552 62.5035C137.552 61.8771 137.497 61.2508 137.386 60.6245C141.549 64.9719 144.884 69.3009 147.389 73.6115Z" fill="#ffffff"/>
<path d="M171.539 63.4429L168.555 82.1773H155.789L163.25 38.132C165.718 31.6109 170.415 26.7476 177.342 23.5423L173.418 51.5058H182.481L177.895 19.6186C172.81 21.4976 168.518 24.2608 165.018 27.9082L169.605 0.994629H186.405L198.563 73.5561C194.621 69.5034 189.868 66.1324 184.305 63.4428L171.539 63.4429ZM187.179 82.1773L184.913 67.4771C191.987 71.4193 197.016 76.3193 200 82.1773H187.179Z" fill="#ffffff"/>
</g>
<defs>
<clipPath id="clip0_55_25">
<rect width="200" height="84" fill="white"/>
</clipPath>
</defs>
</svg>
